<svg width="32" height="32" viewBox="0 0 32 32" fill="none" xmlns="http://www.w3.org/2000/svg">
<path d="M8.80371 10.1421C8.80371 9.5898 9.25142 9.14209 9.80371 9.14209C10.356 9.14209 10.8037 9.5898 10.8037 10.1421V19.3553L21.1966 9.09076C21.5895 8.70267 22.2227 8.7066 22.6108 9.09955C22.9989 9.49249 22.9949 10.1256 22.602 10.5137L12.1636 20.8232H21.4849C22.0371 20.8232 22.4849 21.271 22.4849 21.8232C22.4849 22.3755 22.0371 22.8232 21.4849 22.8232H9.87856C9.58337 22.8232 9.31806 22.6953 9.13501 22.4919C9.07832 22.4409 9.02749 22.3835 8.98366 22.3208C8.96719 22.2973 8.95185 22.2732 8.93764 22.2486C8.85247 22.1015 8.80371 21.9306 8.80371 21.7484V10.1421Z" fill="#DB0D4B"/>
</svg>
