<svg width="240" height="80" viewBox="0 0 240 80" fill="none" xmlns="http://www.w3.org/2000/svg" class="select-none">
<path d="M108.595 47.1806L106 49.7098C108.405 51.903 111.113 52.9996 114.122 52.9996C116.338 52.976 118.157 52.469 119.579 51.4785C121.013 50.5116 121.741 49.138 121.765 47.3575C121.765 45.8364 121.368 44.5807 120.574 43.5902C119.721 42.5762 118.335 41.9984 116.415 41.8569L113.358 41.627C112.458 41.5326 111.83 41.3145 111.474 40.9726C111.083 40.666 110.9 40.3064 110.923 39.8937C110.923 39.2452 111.166 38.7146 111.652 38.3019C112.114 37.8892 112.926 37.6828 114.087 37.6828C115.106 37.6828 116.006 37.8302 116.788 38.125C117.582 38.4551 118.335 38.8737 119.046 39.3808L121.338 36.71C120.438 35.9318 119.419 35.3128 118.281 34.8529C117.689 34.6407 117.055 34.4756 116.38 34.3577C115.704 34.2516 114.94 34.1985 114.087 34.1985C112.12 34.1985 110.497 34.6702 109.217 35.6135C107.902 36.5568 107.232 37.9717 107.209 39.8583C107.232 41.4265 107.742 42.6469 108.737 43.5195C109.709 44.4156 110.971 44.9344 112.523 45.0759L115.793 45.3589C116.48 45.3825 117.031 45.5299 117.446 45.8011C117.849 46.0605 118.05 46.5203 118.05 47.1806C118.05 47.9235 117.713 48.5012 117.037 48.9139C116.362 49.3266 115.491 49.533 114.425 49.533C112.043 49.533 110.1 48.7489 108.595 47.1806Z" fill="white"/>
<path d="M124.441 52.7873H128.156V41.8569C128.156 40.5717 128.505 39.593 129.204 38.9209C129.891 38.237 130.768 37.8951 131.835 37.8951C132.901 37.8951 133.772 38.237 134.447 38.9209C135.135 39.593 135.478 40.5717 135.478 41.8569V52.7873H139.193V40.5835C139.134 38.4846 138.476 36.8928 137.22 35.808C135.952 34.735 134.554 34.1985 133.026 34.1985C131.047 34.1985 129.447 34.9237 128.227 36.374H128.156V27H124.441V52.7873Z" fill="white"/>
<path d="M143.006 52.7873H146.721V34.4285H143.006V52.7873ZM143.006 30.6965H146.721V27H143.006V30.6965Z" fill="white"/>
<path d="M150.765 52.7873H154.48V41.8569C154.48 40.5717 154.836 39.593 155.547 38.9209C156.222 38.237 157.093 37.8951 158.159 37.8951C159.226 37.8951 160.102 38.237 160.79 38.9209C161.465 39.593 161.803 40.5717 161.803 41.8569V52.7873H165.517V41.8569C165.517 40.5717 165.867 39.593 166.566 38.9209C167.253 38.237 168.13 37.8951 169.197 37.8951C170.263 37.8951 171.134 38.237 171.809 38.9209C172.485 39.593 172.822 40.5717 172.822 41.8569V52.7873H176.537V40.5835C176.49 38.4846 175.838 36.8928 174.582 35.808C173.314 34.735 171.916 34.1985 170.387 34.1985C167.958 34.1749 166.021 34.9767 164.575 36.6039C163.936 35.8965 163.231 35.3128 162.46 34.8529C161.678 34.4402 160.648 34.2221 159.368 34.1985C157.377 34.1985 155.772 34.9237 154.551 36.374H154.48V34.4285H150.765V52.7873Z" fill="white"/>
<path d="M180.706 52.7873H184.42V41.8569C184.42 40.5717 184.776 39.593 185.487 38.9209C186.162 38.237 187.033 37.8951 188.1 37.8951C189.166 37.8951 190.043 38.237 190.73 38.9209C191.405 39.593 191.743 40.5717 191.743 41.8569V52.7873H195.458V41.8569C195.458 40.5717 195.807 39.593 196.506 38.9209C197.194 38.237 198.07 37.8951 199.137 37.8951C200.203 37.8951 201.074 38.237 201.75 38.9209C202.425 39.593 202.763 40.5717 202.763 41.8569V52.7873H206.477V40.5835C206.43 38.4846 205.778 36.8928 204.522 35.808C203.254 34.735 201.856 34.1985 200.328 34.1985C197.899 34.1749 195.961 34.9767 194.516 36.6039C193.876 35.8965 193.171 35.3128 192.401 34.8529C191.619 34.4402 190.588 34.2221 189.308 34.1985C187.318 34.1985 185.712 34.9237 184.492 36.374H184.42V34.4285H180.706V52.7873Z" fill="white"/>
<path d="M224.74 45.0052V41.963C224.717 39.5458 223.964 37.6475 222.483 36.2679C221.026 34.9119 219.243 34.2221 217.133 34.1985C216.257 34.1985 215.368 34.3577 214.467 34.6761C213.555 34.9944 212.732 35.5132 211.997 36.2325C211.274 36.94 210.682 37.9069 210.22 39.1331C209.758 40.3358 209.526 41.8451 209.526 43.661C209.526 45.5476 209.793 47.0804 210.326 48.2595C210.812 49.4858 211.446 50.4409 212.228 51.1248C212.631 51.4549 213.063 51.732 213.525 51.9561C213.964 52.2155 214.414 52.4218 214.876 52.5751C215.8 52.8581 216.748 52.9996 217.72 52.9996C220.268 53.0232 222.483 52.0327 224.367 50.0282L221.683 47.7466C220.499 48.9375 219.154 49.533 217.649 49.533C216.357 49.533 215.315 49.1439 214.521 48.3656C213.668 47.5992 213.241 46.4791 213.241 45.0052H224.74ZM213.241 41.963C213.312 40.5363 213.697 39.4574 214.396 38.7263C215.107 38.0307 216.02 37.6828 217.133 37.6828C218.247 37.6828 219.16 38.0307 219.871 38.7263C220.593 39.4574 220.978 40.5363 221.026 41.963H213.241Z" fill="white"/>
<path d="M227.541 52.7873H231.256V41.7331C231.279 40.3889 231.67 39.4161 232.429 38.8148C233.104 38.2016 233.916 37.8951 234.864 37.8951C235.705 37.8951 236.516 38.2016 237.298 38.8148L240 35.6135C238.898 34.6938 237.607 34.2221 236.125 34.1985C234.147 34.1985 232.547 34.9237 231.327 36.374H231.256V34.4285H227.541V52.7873Z" fill="white"/>
<rect width="80" height="80" fill="#00E0CA"/>
<path d="M58.2774 21.6072C50.136 12.9628 36.756 12.7765 28.3924 21.1912C20.0289 29.606 19.8487 43.4351 27.9901 52.0795L33.3424 46.6947C28.092 41.086 28.2185 32.1397 33.6329 26.6922C39.0473 21.2446 47.7032 21.3547 52.9864 26.9306L58.2774 21.6072Z" fill="#00121F"/>
<path d="M22.7229 57.393C30.8642 66.0373 44.244 66.2235 52.6076 57.8088C60.9711 49.3941 61.1513 35.565 53.01 26.9206L47.6582 32.3051C52.9087 37.9139 52.7822 46.8601 47.3678 52.3077C41.9533 57.7552 33.2975 57.6451 28.0143 52.0693L22.7229 57.393Z" fill="#00121F"/>
</svg>
