<svg width="32" height="32" viewBox="0 0 32 32" fill="none" xmlns="http://www.w3.org/2000/svg">
<path d="M22.8993 21.4834C22.8993 22.0357 22.4516 22.4834 21.8993 22.4834C21.347 22.4834 20.8993 22.0357 20.8993 21.4834V12.2702L10.5064 22.5347C10.1135 22.9228 9.48032 22.9189 9.09223 22.5259C8.70413 22.133 8.70807 21.4998 9.10101 21.1118L19.5394 10.8022L10.2181 10.8022C9.66585 10.8022 9.21814 10.3545 9.21814 9.80225C9.21814 9.24996 9.66585 8.80225 10.2181 8.80225L21.8244 8.80225C22.1196 8.80225 22.3849 8.93014 22.568 9.13355C22.6247 9.18457 22.6755 9.24198 22.7193 9.30465C22.7358 9.32819 22.7511 9.35228 22.7654 9.37684C22.8505 9.52398 22.8993 9.69485 22.8993 9.8771V21.4834Z" fill="#14CABF"/>
</svg>
